<?xml version="1.0" encoding="UTF-8" standalone="no"?>
<!-- Created with Inkscape (http://www.inkscape.org/) -->

<svg
   width="600mm"
   height="150mm"
   viewBox="0 0 600 150"
   version="1.1"
   id="svg1"
   sodipodi:docname="StrokeGen.svg"
   inkscape:version="1.3.2 (091e20e, 2023-11-25, custom)"
   xml:space="preserve"
   inkscape:export-filename="StrokeGen.png"
   inkscape:export-xdpi="96"
   inkscape:export-ydpi="96"
   xmlns:inkscape="http://www.inkscape.org/namespaces/inkscape"
   xmlns:sodipodi="http://sodipodi.sourceforge.net/DTD/sodipodi-0.dtd"
   xmlns="http://www.w3.org/2000/svg"
   xmlns:svg="http://www.w3.org/2000/svg"><sodipodi:namedview
     id="namedview1"
     pagecolor="#2d2d2d"
     bordercolor="#000000"
     borderopacity="0.25"
     inkscape:showpageshadow="2"
     inkscape:pageopacity="0.0"
     inkscape:pagecheckerboard="0"
     inkscape:deskcolor="#d1d1d1"
     inkscape:document-units="mm"
     inkscape:zoom="0.27149905"
     inkscape:cx="2060.7807"
     inkscape:cy="66.298574"
     inkscape:window-width="1920"
     inkscape:window-height="1058"
     inkscape:window-x="1913"
     inkscape:window-y="-6"
     inkscape:window-maximized="1"
     inkscape:current-layer="layer1"
     showguides="false" /><defs
     id="defs1"><inkscape:path-effect
       effect="skeletal"
       id="path-effect6"
       is_visible="true"
       lpeversion="1"
       pattern="M 0,0 H 1"
       copytype="single_stretched"
       prop_scale="1"
       scale_y_rel="false"
       spacing="0"
       normal_offset="0"
       tang_offset="0"
       prop_units="false"
       vertical_pattern="false"
       hide_knot="false"
       fuse_tolerance="0" /><inkscape:path-effect
       effect="roughen"
       id="path-effect5"
       is_visible="true"
       lpeversion="1.2"
       global_randomize="1;1"
       displace_x="6.70279;1"
       displace_y="1.74529;1"
       method="size"
       max_segment_size="5.23586"
       segments="2"
       handles="smooth"
       shift_nodes="true"
       fixed_displacement="false"
       spray_tool_friendly="false" /><inkscape:path-effect
       effect="spiro"
       id="path-effect4"
       is_visible="true"
       lpeversion="1" /><inkscape:path-effect
       effect="spiro"
       id="path-effect3"
       is_visible="true"
       lpeversion="1" /><inkscape:path-effect
       effect="spiro"
       id="path-effect1"
       is_visible="true"
       lpeversion="1" /></defs><g
     inkscape:label="图层 1"
     inkscape:groupmode="layer"
     id="layer1"><path
       style="font-size:211.667px;line-height:0.8;font-family:'Viner Hand ITC';-inkscape-font-specification:'Viner Hand ITC';display:none;fill:#cbc8c3;fill-opacity:1;stroke-width:9.665"
       d="m 127.87992,28.740238 2.48048,1.963708 3.82406,-0.413412 4.23747,4.857592 v 1.860355 l 2.58383,2.377119 1.44694,4.857593 -0.62012,2.997238 h 0.62012 l -1.44694,16.226426 -2.58383,2.790531 -4.23747,2.067061 -4.85759,6.201182 -4.23748,1.03353 -3.82406,3.824062 -5.271,-2.583825 -1.44695,-3.824063 2.27377,-2.687178 -1.44694,-3.41065 2.48047,-4.857593 q -0.62012,-4.340827 -1.44694,-4.857592 l -5.27101,0.620118 -3.82406,-1.446943 -6.30453,1.446943 0.62011,2.37712 -4.444176,3.720709 h -1.963707 l -20.050488,12.505716 -3.41065,3.41065 -2.583826,0.413413 -0.826824,1.963707 -5.271005,1.446943 0.413412,1.03353 -3.824062,1.446942 -8.681655,6.614594 -1.446942,1.446943 2.067061,1.343589 q 0.930177,0.620118 2.790531,3.514003 l 2.37712,-1.446942 1.446943,1.860354 3.824062,-1.446942 2.893885,1.446942 5.374357,-0.413412 16.639838,0.413412 1.550296,1.963709 h 4.44418 l 3.41065,2.48047 6.09783,-2.06706 h 2.27377 l 2.17041,1.44694 h 2.79053 l 1.86036,1.5503 h 2.99723 l 1.44695,1.44694 1.65364,0.31006 q 0.72348,0.10335 2.99724,2.06706 h 1.86036 q 1.757,-1.03353 4.03077,-1.55029 l 2.79053,2.58382 1.44694,2.68718 8.26824,5.37436 8.06154,7.13136 -1.86036,3.41065 3.3073,2.99723 -2.27377,7.13136 -0.62011,6.8213 -2.17042,3.51401 q -1.03353,1.757 -2.48047,5.99447 l -4.44418,2.37712 -0.93018,2.48048 -17.77672,12.0923 -3.3073,-0.62012 -0.41341,1.86036 -19.327015,6.40788 -2.893885,2.27377 H 86.1253 l -1.446942,1.44694 H 81.68112 l -1.240237,1.5503 -2.997238,-1.03353 -8.268242,2.89388 -0.413412,-0.41341 -3.824062,0.41341 -6.717947,1.5503 -11.472187,-1.13688 -5.271004,1.55029 -6.717947,-1.55029 -1.34359,-0.10336 -1.343589,-0.10335 -1.136884,-0.10335 q -0.413412,-0.10336 -2.06706,-1.13689 -1.550296,-1.03353 -2.790532,-1.86035 l -3.824062,-5.37436 0.413412,-7.13136 1.860355,-0.41341 1.963707,-1.96371 2.893885,-1.44694 q 1.757002,-2.17041 4.857592,-4.23747 h 11.058775 v 3.41065 l -0.413412,1.24023 1.446942,1.44694 -3.41065,3.20395 q -0.620118,0.62012 -1.860355,3.61735 l 0.826825,1.86036 5.271004,2.37712 1.550296,-2.37712 3.824062,-0.82683 5.271005,1.24024 6.304534,0.62012 3.824063,-1.86036 h 3.41065 l 4.650886,-1.03353 1.860355,-1.03353 h 3.824062 l 2.583825,-0.51676 8.888361,-3.514 2.893885,-0.62012 2.273767,-1.34359 q 0.930177,-0.62012 5.787772,-1.44694 l 1.55029,-1.44695 1.44695,0.41342 8.68165,-4.8576 2.27377,-4.75424 4.44418,-1.24023 -0.20671,-2.68718 1.757,-2.37712 -0.82682,-0.82683 2.27376,-5.89112 -0.41341,-2.37712 1.24024,-3.41065 -2.48047,-4.85759 1.03353,-3.82406 -2.58383,-5.68442 -2.48047,-1.03353 q -1.44694,-3.20394 -3.41065,-4.85759 l -5.27101,1.03353 -1.65365,-3.82406 q -0.31005,-0.62012 -2.58382,-2.58383 -2.37712,-0.41341 -5.27101,-1.86035 l -3.410645,3.41065 -1.446943,-1.5503 -5.374357,-1.24024 -2.893885,-2.99723 -1.550296,1.55029 -2.687179,-1.03353 -1.963707,1.86036 -4.44418,-1.86036 -1.860355,2.89389 -4.650886,-2.27377 -0.620119,2.27377 h -3.824062 l -0.826824,-1.44695 -4.44418,-0.82682 -3.824062,1.86035 -4.547534,-0.51676 q -0.723471,-0.10335 -3.720709,-1.96371 l -2.37712,1.03353 -1.860354,-1.03353 -0.413412,1.86036 -5.891123,0.62011 -0.516765,-1.03353 -2.273767,0.41342 -3.824062,-3.41065 -1.03353,-2.58383 q -0.413413,-1.24024 -2.37712,-3.10059 2.480473,-1.963709 4.237474,-3.824063 h 1.03353 l 1.963708,-3.41065 h 1.860355 l 2.377119,-2.687179 5.271005,-3.41065 5.271004,-4.857593 2.997238,-1.963707 3.824063,-1.446943 3.41065,-3.41065 2.893884,-1.446942 3.203944,-2.790532 4.857593,-2.893885 4.44418,-4.857592 5.064299,-2.790532 q 1.240236,-1.240236 3.41065,-1.963708 l 0.620118,-1.446942 6.201182,-4.44418 h 1.860354 l 2.583826,-3.203944 q 3.203944,-1.653649 5.271,-3.307297 l 0.41342,-1.550296 2.27376,-1.03353 0.41342,-0.826824 q 4.75423,-3.514003 7.85483,-6.407888 h 0.82682 v -0.826824 h 1.5503 l 0.41341,-1.446943 4.44418,-1.446942 z M 230.30278,59.8495 q 0,2.170414 -3.41065,7.648125 v 1.963707 l -2.27377,5.271005 v 3.41065 l -2.99723,7.131359 v 1.03353 q 0,2.37712 1.55029,2.37712 l 3.3073,-1.03353 q 3.20394,1.860354 5.37436,1.860354 h 4.65088 q 6.40789,-1.653648 9.71519,-1.653648 3.82406,0 8.26824,0.620118 v 0.620118 l 3.82406,0.413412 3.514,4.237475 -3.30729,4.237474 -5.99448,0.826824 -5.89112,3.203947 -2.27377,0.41341 q -1.13688,0.20671 -3.41065,1.757 l -6.40789,-0.72347 q -0.62011,0.93018 -5.68441,1.13688 l -10.64536,0.41342 q -4.65089,3.20394 -6.09783,4.85759 l 0.41341,5.271 -1.44694,2.37712 -0.82683,7.54477 -2.58382,3.41065 -0.41342,9.09507 -2.58382,1.44694 -0.41341,2.58383 1.55029,5.271 -1.96371,19.12031 4.23748,16.43314 4.85759,-2.06707 q 1.34359,-2.79053 5.27101,-2.79053 h 1.9637 q 5.0643,-1.65365 7.64813,-5.68441 l 4.85759,-1.44695 -0.62012,-0.51676 1.44694,-1.86036 q 1.96371,-1.44694 2.48048,-2.58382 l 2.99723,-1.03353 0.82683,-1.86036 q 1.55029,0 1.55029,-1.55029 1.86036,-3.20395 9.09507,-5.27101 1.44694,0.72347 1.44694,1.96371 0,1.86036 -1.86035,7.02801 -1.86036,5.16765 -4.85759,7.33806 l -5.78777,4.03077 -1.75701,2.37712 q -0.93017,1.44694 -2.37711,2.06706 l -3.72071,1.65365 -2.89389,0.82682 -6.20118,5.58107 -3.72071,0.41341 -4.75424,3.82406 -1.96371,1.96371 q -0.51676,0.51676 -2.17041,1.13688 l -13.12584,5.16765 -2.99723,0.41342 -2.37712,1.86035 -4.8576,-3.20394 -1.44694,-6.30454 -1.55029,-3.3073 q -0.62012,-1.55029 -4.13412,-22.11754 0.2067,-0.72348 1.86035,-3.61736 v -3.61736 l 2.58383,-1.03353 3.10059,-8.68165 -1.03353,-2.89389 q 4.34082,-0.82682 4.65088,-1.24023 0.41341,-0.41341 0.41341,-0.93018 0,-0.41341 -1.03353,-2.48047 l 3.41065,-10.23195 1.03353,-9.09507 4.65089,-12.50572 q -0.41341,-2.27376 -2.99724,-4.44418 -2.58382,-2.27376 -5.0643,-2.68717 l -4.03076,2.48047 h -1.24024 q -2.99724,0 -4.34083,-0.72347 -1.24023,-0.72347 -1.34359,-0.72347 -0.93017,0 -2.37712,1.03353 -0.93017,2.17041 -2.48047,2.17041 h -0.41341 q -0.51677,0.20671 -1.757,0.20671 -1.13689,0 -4.03077,-0.41342 -2.06706,-5.78777 -2.06706,-7.028 0,-1.24024 1.44694,-4.650889 1.5503,-3.41065 3.20395,-3.41065 l 1.44694,0.206706 2.99724,-0.826824 q 2.89388,-0.826825 4.03076,-0.826825 h 0.62012 q 0.41341,0.206706 1.24024,0.206706 1.03353,0 1.757,-0.413412 0.82682,-0.413412 1.86035,-0.413412 1.34359,0 1.86036,0.413412 l 3.82406,-1.963707 h 1.13688 q 1.5503,0 2.79054,-0.413412 1.24023,-0.413413 3.10059,-4.237475 l 2.27376,0.413412 q 0.31006,-2.06706 2.58383,-6.097828 1.86035,-0.103353 1.86035,-2.997238 v -1.240237 l -0.62011,0.826825 q 1.55029,-4.030769 2.58382,-6.097829 l -0.62012,-4.030769 4.44418,-8.474948 q 1.86036,-2.790532 4.8576,-3.41065 2.06706,-3.100591 6.92465,-6.097829 4.85759,-2.997238 6.40789,-2.997238 3.61735,0 4.44418,3.203944 l -2.99724,5.891123 z m 74.93095,26.25167 q 2.48047,1.136884 2.79053,3.41065 -2.79053,2.997238 -2.79053,8.681655 v 1.550295 q -1.03353,1.03353 -1.03353,2.06706 0,1.13688 0.41341,1.65365 h 0.62012 l -0.62012,2.99724 -1.86035,0.41341 -0.82683,3.41065 h -0.62011 q 0.31005,1.757 1.44694,2.27377 2.58382,-0.20671 8.26824,-6.51124 l 0.41341,0.41341 10.54201,-7.854833 1.96371,-0.413412 4.85759,-2.687179 3.82406,-1.136883 q 3.61736,-3.100591 11.36884,-3.307297 3.514,2.06706 4.65088,2.06706 1.34359,0 1.34359,0.826825 0,0.723471 -0.93017,4.237474 l -4.44418,2.583825 -2.48048,3.10059 -7.23471,3.41065 -2.68718,-1.24023 h -1.96371 v 0.41341 q -7.44141,2.89388 -13.53924,4.23747 -2.89389,5.68442 -10.64536,14.88284 -7.75148,9.19842 -7.95819,13.95266 l -0.62012,14.98619 -4.03076,6.71794 0.41341,9.40513 q -0.41341,1.65365 -1.44695,3.514 -0.93017,1.757 -1.34358,3.10059 -0.41342,1.34359 -2.89389,5.16766 l -1.86035,0.51676 q -0.72348,0.10335 -5.58107,3.92742 h -5.271 l -2.37712,0.82682 -3.41065,-3.3073 q 0,-2.99724 2.17041,-7.44142 2.17042,-4.44418 2.48047,-6.51124 1.44695,-10.23195 5.37436,-12.0923 l 1.03353,-2.99724 -0.41341,-1.86035 0.82682,-1.5503 -2.79053,-4.65089 v -1.44694 l -0.62012,-9.09506 q 1.44695,-1.03353 1.96371,-1.03353 0.82683,0 1.86036,1.03353 l 4.03076,-5.27101 -0.62011,-3.82406 1.03353,-4.44418 -2.48048,-1.96371 v -10.54201 l -3.82406,2.99724 h -2.37712 l -3.41065,2.27377 -3.30729,-0.82683 -3.41065,0.41341 q -2.79054,0 -2.79054,-1.86035 0,-3.10059 3.10059,-7.33807 3.1006,-4.23747 9.40513,-7.751473 v -0.413412 l 2.79053,-0.413412 q 1.65365,-2.997238 3.82406,-2.997238 1.24024,-0.516765 2.79054,-1.963708 1.55029,-1.550295 6.92465,-4.134121 l 2.68718,1.446943 2.17041,-1.033531 3.20395,-0.826824 z m 97.87532,-0.206706 h 5.27101 l 3.41065,1.550296 q 1.24024,5.47771 4.03077,5.47771 1.03353,0 1.03353,-2.06706 3.20394,-2.37712 5.89112,-2.37712 1.65365,0 2.79053,1.136883 1.13689,1.136884 1.24024,2.273767 l 0.82682,11.78225 -0.62012,2.37712 q -0.72347,2.37712 -1.03353,5.06429 -0.31006,2.68718 -1.03353,4.23748 -0.62011,1.55029 -0.93017,1.96371 l -8.3716,8.88836 1.03353,6.09783 -2.17041,3.61735 -1.03353,3.3073 -6.51124,7.44142 -3.20395,8.06153 q -2.89388,3.20395 -8.26824,5.0643 l -1.44694,5.89112 -5.99448,3.82407 -5.271,6.40788 -9.50848,7.13136 -2.79053,0.72347 -10.74872,8.68166 -2.99724,-2.79053 q -3.514,-2.68718 -4.96094,-4.65089 -1.34359,-1.86035 -1.34359,-3.41065 0,-0.82682 0.62012,-1.44694 l 1.03353,-8.88836 -4.44418,-7.23471 q -0.62012,-0.93018 -0.62012,-1.65365 0,-1.24024 1.24023,-2.79053 v -0.41342 l 1.75701,-1.65365 -1.96371,-5.16765 0.62012,-10.74871 v -2.79053 l 1.55029,-0.82683 q -1.13688,-2.06706 -1.13688,-4.85759 0,-1.5503 1.34359,-3.20394 h 1.86035 l -1.65365,-1.44695 1.24024,-2.27376 2.17041,-5.58107 3.1006,-3.82406 0.93017,-2.89388 3.10059,-4.23748 q 0.41342,-1.44694 0.82683,-2.58382 v 0.2067 q 0,-1.65365 0.72347,-2.68718 0.82682,-1.03353 2.48047,-3.82406 l 5.0643,-2.583825 0.41341,-1.446942 q 5.16765,-4.134122 10.23195,-5.064299 l 6.92466,-1.343589 4.65088,-2.687179 3.41065,0.206706 z m -6.40788,18.500196 -0.41342,0.82682 q -1.86035,0 -2.68717,0.10335 -0.82683,0 -2.37712,1.34359 l -2.99724,-1.24023 -11.36884,6.30453 q -4.23747,2.37712 -7.23471,7.85483 -2.99724,5.37436 -2.99724,8.88836 0,2.17042 0.93018,3.82407 h 0.41341 q 0,2.37711 1.24024,8.68165 l -2.58383,4.03077 1.96371,2.89388 -1.03353,3.61736 q 0,0.72347 0.82683,2.58382 0.82682,1.75701 0.72347,2.68718 0,0.82683 1.757,3.61736 l -0.20671,2.17041 q 0,5.68442 2.79053,5.68442 2.27377,0 6.09783,-3.20394 0.93018,-2.68718 3.61736,-2.89389 l 1.03353,-3.20394 q 1.757,-0.20671 1.757,-1.65365 v -0.72347 q 0.51677,-0.31006 1.13688,-0.62012 0.62012,-0.31006 0.72348,-0.41341 1.24023,-4.03077 4.85759,-9.09507 l 0.72347,0.41341 -0.31006,-0.82682 3.20394,-3.61736 4.03077,-13.33254 0.62012,-1.24024 1.34359,-0.41341 0.10335,-2.37712 v -1.86035 q 0.10336,-0.62012 1.5503,-3.82406 l -6.40789,-5.0643 4.96095,-1.96371 -0.72348,-5.68442 0.93018,-2.06706 -1.34359,0.62012 z m 78.96172,-7.854834 q -0.20671,1.240237 -0.20671,3.617354 0,5.27101 3.20395,5.27101 0.82682,0 1.44694,-0.20671 v -1.757 l 7.44142,-3.72071 3.514,-4.030768 0.72347,0.620118 q 1.24024,-4.237474 5.0643,-4.44418 l -0.2067,-0.826824 q 3.514,-2.687179 5.89112,-4.75424 2.58382,0 5.47771,-2.273766 l 1.13688,0.826824 5.47771,-2.273767 9.09507,-2.583825 q 4.03077,-3.41065 8.47495,-3.41065 h 0.62012 l -0.41342,-0.620119 q 2.68718,-1.963707 7.54478,-3.100591 l 4.75424,-1.136883 q 4.65088,0 4.65088,6.614594 0,1.446942 -1.96371,1.446942 h -0.41341 v 1.033531 l -1.24023,0.620118 1.24023,0.206706 -5.0643,8.474949 -1.24023,1.136883 0.62012,0.620118 -0.82683,-0.206706 q -1.55029,0 -1.55029,1.03353 0,0.620119 0.62011,1.240237 -4.44418,5.47771 -4.44418,7.441419 l -0.2067,-0.41341 -3.72071,1.44694 q -6.40789,8.88836 -7.64813,10.1286 -1.24023,1.13688 -2.17041,1.13688 h -0.20671 l -0.31005,0.93018 q -0.10336,0.51676 -1.86036,2.48047 -1.757,1.86035 -5.89112,4.96095 -4.13412,3.10059 -9.09507,6.61459 l -0.82682,6.09783 2.37712,2.58382 0.41341,3.41065 1.24024,1.44695 1.03353,6.8213 4.44418,5.06429 2.58382,6.30454 q 1.34359,2.27377 5.89112,5.78777 l 0.62012,1.65365 0.72347,-0.41341 q 0,0.62011 0.20671,0.62011 h 0.41341 q 1.34359,0.72348 2.58383,1.03353 1.24023,0.20671 4.75424,1.96371 l 1.13688,2.06706 1.24024,0.62012 3.82406,0.41341 q 1.55029,0.72347 5.271,0.93018 l -0.2067,0.62012 3.41065,0.2067 3.30729,0.82683 2.79054,-0.41341 1.65364,0.41341 -0.2067,0.41341 5.78777,0.62012 q 2.27377,-2.27377 2.27377,-4.03077 l -0.82683,-4.03077 q 0,-3.30729 4.44418,-4.65088 l 0.20671,0.41341 0.2067,-1.03353 0.62012,0.41341 0.41341,-2.48047 0.93018,0.2067 0.20671,-0.82682 q 0.82682,-0.93018 1.86035,-0.93018 h 0.41341 q 2.17042,0.62012 3.41065,2.58383 1.24024,1.96371 1.24024,3.82406 l -0.62012,3.41065 1.03353,2.06706 -0.2067,2.99724 0.72347,2.89388 q 0.82682,2.99724 0.82682,4.65089 0,2.27377 -1.34359,4.44418 l -1.03353,-0.20671 -2.58382,2.58383 -1.24024,-0.20671 0.41341,1.24024 q -1.757,1.34359 -4.44418,1.34359 h -4.03077 l -3.514,-3.61736 q -1.03353,0.10336 -2.99724,0.82683 -1.96371,0.82682 -3.20394,0.82682 -1.44694,0 -3.82406,-1.34359 -2.37712,-1.34359 -4.65089,-1.86035 l -2.27377,0.93017 q -3.72071,-1.55029 -6.40788,-1.55029 h -1.03353 q -0.62012,0.62012 -1.24024,0.62012 -1.24024,0 -1.5503,-2.48048 l -2.48047,0.62012 q -1.24024,-0.62012 -2.58383,-1.86035 l -4.85759,-1.13688 q -0.41341,0.2067 -1.03353,0.2067 -0.72347,0 -1.96371,-0.82682 l -0.82682,0.41341 -0.62012,-1.65365 q -2.37712,-0.82682 -4.65088,-2.37712 l -0.62012,0.20671 q -0.51677,0 -1.13689,-0.31006 -0.62011,-0.31006 -1.44694,-0.93018 l -1.65365,-1.34359 q -0.93017,-0.62012 -1.86035,-1.24024 -0.82683,-0.62011 -2.17042,-1.44694 -1.34358,-0.93017 -2.17041,-2.06706 -0.72347,-1.13688 -1.86035,-2.37712 -1.03353,-1.34359 -2.06706,-2.27376 h -0.62012 q -0.82683,0 -1.34359,-0.41342 l -0.62012,-3.61735 -1.86035,-0.62012 -0.20671,-0.72347 q -1.24024,-0.82683 -3.3073,-4.34083 -2.06706,-3.61736 -3.92741,-4.96094 2.27376,-0.72348 3.20394,-1.65365 -1.03353,-1.86036 -2.37712,-1.86036 -0.82682,0 -0.82682,1.65365 l -2.37712,-7.85483 h 0.51676 q -0.72347,-2.27377 -2.17041,-2.48047 l -3.41065,-5.37436 -2.48047,1.34359 0.41341,5.271 -0.82683,5.27101 0.41342,3.41065 h -1.03353 q -1.13689,3.514 -2.37712,9.92189 -1.13689,6.30453 -2.99724,8.26824 l -0.82683,3.41065 -2.17041,2.48047 q -0.93018,1.13689 -1.65365,8.47495 -0.93018,1.24024 -1.86035,1.96371 l -0.62012,-0.41341 -1.5503,2.89388 -1.24023,0.41342 0.41341,0.82682 h -1.24024 q -0.31006,1.5503 -1.9637,1.5503 h -0.62012 q -1.13689,1.44694 -1.86036,1.44694 -1.13688,0 -1.44694,-0.41341 l 0.82682,0.82682 h -1.34358 q -2.48048,0.62012 -2.48048,2.99724 h -2.79053 l -1.86035,-5.27101 -4.44418,-1.13688 q 1.55029,-3.10059 4.85759,-3.10059 l 0.72347,-3.514 q 0.10335,-0.51677 2.06706,-2.89389 v -2.89388 q 0.62012,-0.20671 0.82682,-2.17042 0.20671,-2.06706 1.24024,-6.30453 l 1.24024,-1.13689 v -1.44694 l 1.13688,-2.68718 0.62012,0.41342 v -1.5503 l -0.62012,0.41341 0.62012,-0.2067 q -0.41341,-0.20671 -0.41341,-0.62012 0,-0.41341 0.72347,-1.96371 0.72347,-1.5503 2.37712,-6.71795 l 1.55029,-1.03353 q 0.10336,-5.47771 1.65365,-7.44142 1.65365,-1.9637 1.65365,-2.06706 0,-0.2067 -1.03353,-2.37712 l 0.41341,-2.48047 -1.65365,-2.79053 q 0.20671,-3.20394 0.41342,-4.65089 0.2067,-1.55029 3.20394,-6.51124 1.65365,-1.757 1.65365,-6.61459 0,-1.03353 -1.65365,-3.41065 h 0.62012 v -3.3073 h 0.41341 q 1.03353,0 1.03353,-1.13688 0,-0.20671 -0.41341,-1.44694 h -0.62012 q 0,-2.17042 0.82682,-2.79054 l 0.62012,-5.271001 -0.62012,-1.446943 q 0.93018,-1.860354 2.06706,-3.514003 1.13689,-1.757001 1.13689,-3.307297 0,-0.620118 -0.62012,-1.757001 -0.62012,-1.240236 -0.62012,-2.067061 0,-1.860354 1.44694,-4.857592 h 1.03353 q -1.44694,-1.653649 -1.44694,-6.511241 l 0.41341,-0.620118 -1.44694,-0.930178 q -0.93018,-2.06706 -0.93018,-2.893884 0,-1.550296 0.93018,-2.37712 v -1.860355 h 0.62012 l 1.24024,-4.44418 h -0.41342 l 0.41342,-2.37712 -2.79054,-1.860354 v -7.648125 l -2.27376,0.826825 q -1.24024,-0.413412 -1.96371,-0.413412 -1.96371,0 -4.03077,1.550295 v 0.413412 l -0.82682,-0.413412 -1.44694,2.273767 -3.41065,-0.413412 q -1.44695,0 -1.44695,0.620118 0,0.723471 0.62012,1.757001 l -5.271,-1.550295 v 1.03353 l -3.41065,0.516765 -0.41342,1.446943 -4.85759,3.41065 -2.37712,-1.136884 v 0.723472 h -1.44694 l -0.62012,-1.550296 -1.24024,0.826824 -1.13688,-4.237474 h -0.41341 l -1.03353,-1.446942 4.85759,-3.41065 q 0.93018,-2.480473 2.27377,-3.617356 1.34359,-1.136884 4.54753,-2.067061 l 7.54477,-2.273767 7.64813,-0.723471 10.12859,-4.650886 0.41342,-1.446943 2.99723,-1.446942 h 3.41065 l -0.62011,-2.37712 v -1.446942 l 1.44694,-1.033531 q 0.82682,0 1.96371,1.033531 v -1.033531 l 0.62011,-0.516765 0.41342,-1.03353 9.50848,-7.131359 0.41341,0.620118 h 2.37712 q 2.89388,0 3.92741,1.03353 1.13689,1.033531 1.13689,3.824062 v 1.653649 h 0.41341 q -2.99724,6.614594 -2.99724,7.85483 0,0.620118 0.41341,2.37712 l -1.24023,0.413412 0.62011,0.620118 -1.65364,0.413412 0.41341,3.41065 -2.37712,6.097829 -0.41341,5.891123 -1.86036,4.650886 v 1.963708 l -2.58382,4.030768 v 5.684417 l -1.86036,3.824062 -1.55029,6.717947 h 1.34358 v 0.723471 q 0,2.37712 -0.93017,4.75424 -0.82683,2.377119 -0.82683,2.997238 l 0.41342,3.41065 v 3.41065 z m 43.61498,-4.237474 v 0.413412 q -0.41341,0.206706 -1.34359,0.310059 -0.82682,0.103353 -0.82682,0.516766 l -1.86036,0.206706 v 0.413412 l -3.41065,0.620118 q -1.13688,0.930177 -3.41065,1.550295 -3.10059,1.34359 -5.271,2.790532 -2.06706,1.343588 -3.51401,3.307298 -1.44694,1.96371 -2.99723,4.23747 v -0.62011 q -2.27377,3.41065 -9.09507,8.06153 -2.68718,0.51677 -3.72071,1.96371 -0.93018,1.44694 -1.13688,1.65365 l -0.51677,-0.20671 -1.03353,0.20671 q -2.99724,2.68718 -4.03077,5.89112 0.41342,0.41341 0.41342,1.24024 l -0.20671,1.34359 q 1.34359,0 1.34359,1.03353 0.2067,-0.20671 0.62012,-0.20671 0.82682,0 1.44694,0.62012 l 1.24024,-0.20671 6.61459,-2.58382 1.44694,-2.89389 2.37712,1.03353 2.68718,-0.2067 0.41341,-2.37712 q 2.17042,0 2.17042,-2.06706 1.86035,-1.34359 5.271,-2.37712 l 1.03353,-1.65365 5.78777,-2.79053 0.20671,-1.65365 0.41341,0.41341 q 5.58106,-1.65365 9.71518,-12.712423 l 2.37712,-1.446943 0.82683,-2.583825 V 92.92247 q 0,-1.240236 -1.13689,-1.240236 h -0.41341 z m 109.86429,-5.271004 2.58382,0.413412 h 0.41342 l -0.41342,1.03353 h 0.82683 l 1.44694,1.446943 4.85759,0.413412 h 4.8576 l 2.79053,1.550295 h 1.03353 l 1.55029,5.271005 -2.17041,1.860354 v 1.963711 l 3.41065,3.41065 -0.41341,9.50848 h -1.44695 l -0.51676,1.86035 H 647.539 v 2.99724 l 1.9637,0.41341 0.82683,1.03353 -1.24024,1.96371 v 1.44694 l -2.58382,1.24024 -1.86036,1.55029 -5.37436,2.89389 q -2.17041,2.27376 -3.7207,3.41065 l -1.5503,4.23747 -9.09507,3.61736 -9.09506,-0.20671 0.41341,2.27377 h -1.86036 l -0.41341,0.62012 -4.44418,0.93017 -0.41341,-1.55029 -1.5503,0.62012 v 0.93017 l -3.82406,1.44695 -1.44694,4.23747 1.96371,5.27101 v 2.58382 l 1.03353,2.27377 q -2.06706,6.09783 -2.99724,6.40789 l 0.62012,1.86035 -1.03353,0.41341 2.37712,1.03353 v 3.20395 l 2.06706,1.44694 q 5.16765,-1.5503 6.30453,-2.27377 l 1.5503,1.44694 0.41341,-0.41341 q 4.23747,-0.41341 6.71795,-1.03353 l 0.72347,-1.24023 h 2.48047 l 1.96371,-0.20671 2.48047,1.24024 -0.62012,-0.82683 h 2.06706 l 2.58383,-2.17041 2.99724,-0.20671 h -0.62012 l 2.89388,-1.24023 0.82683,0.62011 1.55029,-1.44694 h 2.06706 l 1.96371,-1.96371 q 2.27377,-0.10335 7.33807,-2.68717 v -1.13689 l 2.99724,-0.82682 3.20394,-4.65089 3.41065,0.41341 q 1.757,1.65365 4.13412,1.96371 l 1.5503,1.44694 -2.37712,4.44418 0.41341,2.79054 -3.3073,1.86035 -0.41341,1.03353 -4.96095,0.62012 -2.68717,2.79053 -2.99724,0.20671 -0.82683,2.37712 -4.03077,-0.41342 -1.24023,2.89389 -3.20395,-0.41341 -1.24023,1.44694 q -3.514,1.34359 -3.61736,1.55029 l -1.44694,-0.82682 -2.37712,2.27377 h -3.41065 l -2.06706,1.03353 h -1.24024 l -1.55029,1.34359 q -2.68718,0.72347 -5.47771,2.27376 l -1.44695,-1.03353 h -2.99723 l -1.24024,1.03353 -1.13688,-0.41341 -1.44695,0.41341 -0.41341,-0.41341 -1.03353,2.37712 h -2.79053 l -2.27377,1.24024 q -1.13688,0.62012 -4.96094,1.03353 l -1.03353,1.03353 h -1.86036 l -2.79053,0.41341 -2.06706,2.58383 -2.79053,-1.03353 -1.44694,1.86035 -1.13689,-0.31006 q -0.41341,-0.10335 -4.13412,-3.92741 l 0.41341,-2.48048 -0.41341,-1.34359 0.41341,-2.48047 -1.55029,-3.82406 0.62012,-2.99724 -1.03353,-4.65089 1.03353,-3.82406 -1.44695,-5.89112 -0.41341,-0.41341 0.41341,-2.99724 3.41065,-1.24024 v -2.06706 l -1.44694,-0.51676 0.41341,-2.68718 -0.93017,-1.5503 0.51676,-2.48047 1.44694,-0.82682 -0.41341,-2.37712 0.41341,-4.03077 0.82683,-0.41341 1.44694,-4.8576 3.41065,-6.09783 2.99724,-1.13688 0.41341,-3.3073 -0.41341,-0.93017 0.41341,-1.86036 1.86036,-1.03353 1.13688,-3.41065 h -2.58383 v -1.24023 l 1.03353,-1.5503 -0.41341,-1.44694 0.41341,-1.44694 h 0.41342 v -3.41065 l 3.41065,-0.41342 1.44694,-2.99723 7.23471,-8.061541 h 1.44694 q 1.24024,-1.963707 3.20395,-3.307297 l 1.44694,0.413412 q 1.44694,-0.516765 3.41065,-3.41065 h 1.03353 l 1.96371,-1.240236 h 0.82682 l 1.44694,-2.170414 z m -2.48047,17.570012 -3.61736,1.24024 -2.79053,-1.24024 q -2.48048,2.06706 -4.03077,2.89389 -0.31006,2.68718 -2.17041,4.54753 -1.75701,1.86036 -2.48048,1.86036 h -1.86035 l 1.24023,2.27376 q -1.13688,2.06706 -2.99723,6.40789 l -1.65365,-0.41341 -0.62012,2.68718 0.62012,3.82406 2.06706,1.13688 q 0.93018,0.51677 5.16765,1.24024 l 3.3073,-2.17041 6.8213,-0.62012 3.61735,-5.27101 4.8576,-4.03077 0.62011,-7.64812 -1.65364,-2.48047 -0.20671,-3.61736 h -2.37712 z m 125.78059,-61.184991 2.48047,0.413412 2.37712,0.826824 5.27101,-0.413412 2.99723,1.03353 0.41342,1.240236 0.41341,-0.413412 1.03353,2.37712 h 1.44694 l 3.20395,5.271005 -1.24024,2.583825 0.41341,4.650887 v 4.857592 l -2.37712,2.480473 1.34359,2.790532 2.89389,-0.826824 2.37712,0.413412 v 2.273766 l -1.24024,2.997238 4.13412,9.095067 -1.34359,1.343589 q -0.51676,0.620119 -4.96094,2.480473 l -0.82683,3.41065 0.41341,3.824062 -1.86035,3.307297 q -4.54753,1.963709 -7.23471,3.824059 l -0.82683,1.96371 -4.03077,-1.34359 q -3.10059,2.89389 -3.82406,5.37436 l -4.85759,0.41341 -1.96371,-3.41065 0.72347,-2.99724 -1.9637,-4.237471 2.79053,-6.717947 -0.41341,-2.997238 0.82682,-5.271004 v -5.271005 l 1.03353,-8.474948 -1.86035,-6.407888 -1.13689,-1.860355 h -0.82682 l -2.89389,-1.446942 h -5.37435 q -6.71795,2.997238 -7.13136,3.824062 h -0.93018 l -15.81301,15.813014 -1.96371,4.44418 -1.44694,0.826824 -0.41342,2.583826 -4.85759,5.271005 -1.44694,7.234707 -2.17042,2.37712 q -1.24023,1.44695 -1.65364,2.79054 l -1.13689,3.92741 H 696.735 v 4.23748 l -1.44695,1.03353 -1.55029,9.50847 -2.68718,2.37712 -0.41341,2.89389 0.82682,2.37712 -1.55029,4.03077 0.72347,7.64812 -2.17042,1.86036 -0.82682,3.82406 1.44694,3.82406 0.41341,4.85759 5.37436,9.50848 1.44694,3.41065 5.27101,2.89389 h -3.41065 v 2.99723 l 4.23747,0.82683 9.71519,-0.82683 1.34359,0.41342 q 3.10059,-1.44695 5.271,-3.41065 h 1.03353 l 2.37712,-4.23748 7.75148,-4.03077 1.96371,-1.55029 q 0.82682,-0.72347 5.271,-2.58383 V 160.412 l 3.41065,-0.82682 q 0.31006,-1.5503 2.89389,-3.61736 2.68717,-2.06706 4.75424,-2.06706 2.27376,-4.34083 4.85759,-6.40789 v -5.68442 l 8.68165,-8.68165 3.10059,-1.03353 7.85483,-5.27101 2.79054,-0.41341 3.41065,2.48048 1.44694,-2.06707 4.23747,2.06707 -2.79053,7.64812 -1.86035,0.41341 0.41341,22.63432 1.03353,1.44694 v 5.37436 l -1.44694,2.68717 0.41341,4.8576 -1.03353,1.55029 v 4.65089 l -5.0643,13.95266 -2.37712,9.09506 -1.44694,2.37712 v 1.86036 l -1.5503,2.99724 q -3.20394,4.44418 -3.3073,5.271 l -0.51676,-1.03353 -0.41341,1.44694 -3.3073,2.27377 -1.5503,2.99724 -1.86035,1.96371 -1.96371,4.23747 -2.89388,3.3073 -1.5503,2.99723 q -2.79053,2.17042 -5.68441,5.68442 l -3.82407,1.03353 0.41342,2.79053 q -2.89389,2.17042 -4.65089,2.58383 l -0.62012,1.24024 v 1.86035 l -3.82406,1.5503 -2.27377,3.41065 -1.96371,0.41341 -0.62011,2.06706 -10.95542,6.09783 -1.96371,1.9637 -1.44694,-0.41341 -3.82407,4.23748 -1.86035,-0.41342 -3.41065,2.27377 -1.5503,4.44418 -3.10059,0.82683 -3.41065,-0.41342 -6.30453,2.99724 -2.79053,-1.44694 -2.99724,3.82406 -2.27377,0.41341 -1.13688,-0.93017 -2.37712,1.24023 q -1.34359,0.72347 -2.68718,0.82683 l -3.514,0.31006 -2.37712,-2.99724 1.86035,-4.23748 0.93018,0.41342 1.44694,-1.86036 1.03353,0.41341 q 3.72071,-0.82682 5.27101,-1.86035 l 0.41341,0.62012 1.9637,-1.03353 h 1.44695 q 0.72347,-1.03353 4.75424,-2.68718 l 3.92741,-1.5503 h 1.96371 l 1.44694,-1.55029 4.23748,-1.44695 9.50848,-4.85759 2.99723,-2.79053 4.44418,-1.86035 1.86036,-1.5503 1.96371,-1.03353 7.13135,-6.09783 v -1.03353 l 6.20119,-6.20118 2.48047,-1.86036 0.82682,-2.99723 6.40789,-6.51124 v -2.58383 l 6.51124,-10.1286 v -1.55029 l 2.17042,-0.82683 3.61735,-11.36883 -0.41341,-6.61459 1.86035,-2.58383 q -0.62011,-8.68165 -2.37712,-11.36883 l 1.96371,-7.85483 0.82683,-0.41342 -1.44695,-3.82406 -2.37712,-1.44694 -2.27376,-7.23471 h -1.96371 q -2.68718,1.86035 -4.03077,4.44418 l -4.23747,0.82682 -1.86036,2.37712 -1.86035,0.62012 -1.5503,1.96371 -10.95542,7.95818 -10.23195,5.37436 -1.44694,1.44694 -7.64813,2.99724 -1.03353,-1.13688 -6.51124,1.13688 -3.41065,-1.96371 -1.03353,-2.48047 -2.37712,1.44694 -4.44418,-3.82406 -0.41341,-3.82406 -2.27377,-1.24024 q -1.13688,-0.62012 -2.99723,-3.20394 l 0.41341,-2.68718 -3.20395,-3.41065 0.82683,-2.37712 -1.86036,-5.89112 3.41065,-1.96371 -1.13688,-3.72071 -1.86035,-0.93018 v -2.48047 l 2.99723,-5.68442 -2.37712,-2.99724 1.24024,-3.82406 2.58383,-1.44694 -1.86036,-2.79053 v -1.44695 l 2.27377,-4.44418 -0.41341,-3.82406 2.79053,-6.61459 1.03353,-1.44694 -0.41341,-2.58383 5.68441,-14.366071 h 1.44695 l 1.55029,-5.271005 2.48047,-2.480472 q 1.34359,-1.34359 1.75701,-2.790532 l -1.13689,-2.37712 q 1.5503,-1.343589 2.99724,-3.824062 l 1.03353,-0.413412 0.41341,0.413412 0.51677,-2.480473 q 5.0643,-4.340827 5.68441,-8.474948 l 4.8576,-4.444181 6.30453,-4.857592 0.93018,-1.963708 q 1.96371,-0.310059 6.30453,-4.237474 l 0.41342,0.413412 q 5.89112,-5.167651 7.23471,-5.684417 l 6.09783,-2.273766 1.03353,-1.136884 2.37712,-0.413412 2.99724,-1.860354 z m 98.39208,43.614979 2.58382,0.413412 h 0.41342 l -0.41342,1.03353 h 0.82683 l 1.44694,1.446943 4.85759,0.413412 h 4.85759 l 2.79054,1.550295 h 1.03353 l 1.55029,5.271005 -2.17041,1.860354 v 1.963711 l 3.41065,3.41065 -0.41341,9.50848 h -1.44695 l -0.51676,1.86035 h -0.41341 v 2.99724 l 1.9637,0.41341 0.82683,1.03353 -1.24024,1.96371 v 1.44694 l -2.58382,1.24024 -1.86036,1.55029 -5.37436,2.89389 q -2.17041,2.27376 -3.7207,3.41065 l -1.5503,4.23747 -9.09507,3.61736 -9.09506,-0.20671 0.41341,2.27377 h -1.86036 l -0.41341,0.62012 -4.44418,0.93017 -0.41341,-1.55029 -1.5503,0.62012 v 0.93017 l -3.82406,1.44695 -1.44694,4.23747 1.96371,5.27101 v 2.58382 l 1.03353,2.27377 q -2.06706,6.09783 -2.99724,6.40789 l 0.62012,1.86035 -1.03353,0.41341 2.37712,1.03353 v 3.20395 l 2.06706,1.44694 q 5.16765,-1.5503 6.30453,-2.27377 l 1.5503,1.44694 0.41341,-0.41341 q 4.23747,-0.41341 6.71795,-1.03353 l 0.72347,-1.24023 h 2.48047 l 1.96371,-0.20671 2.48047,1.24024 -0.62012,-0.82683 h 2.06706 l 2.58383,-2.17041 2.99724,-0.20671 h -0.62012 l 2.89388,-1.24023 0.82683,0.62011 1.55029,-1.44694 h 2.06706 l 1.96371,-1.96371 q 2.27377,-0.10335 7.33807,-2.68717 v -1.13689 l 2.99724,-0.82682 3.20394,-4.65089 3.41065,0.41341 q 1.757,1.65365 4.13412,1.96371 l 1.5503,1.44694 -2.37712,4.44418 0.41341,2.79054 -3.3073,1.86035 -0.41341,1.03353 -4.96095,0.62012 -2.68718,2.79053 -2.99723,0.20671 -0.82683,2.37712 -4.03077,-0.41342 -1.24023,2.89389 -3.20395,-0.41341 -1.24023,1.44694 q -3.51401,1.34359 -3.61736,1.55029 l -1.44694,-0.82682 -2.37712,2.27377 h -3.41065 l -2.06706,1.03353 h -1.24024 l -1.55029,1.34359 q -2.68718,0.72347 -5.47771,2.27376 l -1.44695,-1.03353 h -2.99723 l -1.24024,1.03353 -1.13688,-0.41341 -1.44695,0.41341 -0.41341,-0.41341 -1.03353,2.37712 h -2.79053 l -2.27377,1.24024 q -1.13688,0.62012 -4.96094,1.03353 l -1.03353,1.03353 h -1.86036 l -2.79053,0.41341 -2.06706,2.58383 -2.79053,-1.03353 -1.44694,1.86035 -1.13689,-0.31006 q -0.41341,-0.10335 -4.13412,-3.92741 l 0.41341,-2.48048 -0.41341,-1.34359 0.41341,-2.48047 -1.55029,-3.82406 0.62012,-2.99724 -1.03353,-4.65089 1.03353,-3.82406 -1.44695,-5.89112 -0.41341,-0.41341 0.41341,-2.99724 3.41065,-1.24024 v -2.06706 l -1.44694,-0.51676 0.41341,-2.68718 -0.93017,-1.5503 0.51676,-2.48047 1.44694,-0.82682 -0.41341,-2.37712 0.41341,-4.03077 0.82683,-0.41341 1.44694,-4.8576 3.41065,-6.09783 2.99724,-1.13688 0.41341,-3.3073 -0.41341,-0.93017 0.41341,-1.86036 1.86036,-1.03353 1.13688,-3.41065 h -2.58383 v -1.24023 l 1.03353,-1.5503 -0.41341,-1.44694 0.41341,-1.44694 h 0.41342 v -3.41065 l 3.41065,-0.41342 1.44694,-2.99723 7.23471,-8.061541 h 1.44694 q 1.24024,-1.963707 3.20395,-3.307297 l 1.44694,0.413412 q 1.44694,-0.516765 3.41065,-3.41065 h 1.03353 l 1.96371,-1.240236 h 0.82682 l 1.44694,-2.170414 z m -2.48048,17.570012 -3.61735,1.24024 -2.79053,-1.24024 q -2.48048,2.06706 -4.03077,2.89389 -0.31006,2.68718 -2.17042,4.54753 -1.757,1.86036 -2.48047,1.86036 h -1.86035 l 1.24023,2.27376 q -1.13688,2.06706 -2.99723,6.40789 l -1.65365,-0.41341 -0.62012,2.68718 0.62012,3.82406 2.06706,1.13688 q 0.93018,0.51677 5.16765,1.24024 l 3.3073,-2.17041 6.8213,-0.62012 3.61735,-5.27101 4.8576,-4.03077 0.62011,-7.64812 -1.65364,-2.48047 -0.20671,-3.61736 h -2.37712 z m 85.05957,-18.50019 4.03076,0.516766 5.78777,-0.723472 v 7.234712 q -1.757,1.34359 -1.757,2.790532 -2.89388,1.653649 -2.89388,4.444182 0,1.24024 0.2067,1.86035 l -0.72347,4.03077 -7.75147,13.95266 -1.13689,6.8213 -1.86035,2.48047 0.2067,5.27101 -2.99723,14.05601 q -0.41342,0.41341 -0.41342,0.82682 0,0.82683 1.03353,1.44695 l 4.75424,-5.89113 2.68718,-1.44694 2.17042,-4.96094 4.03076,-2.89389 4.8576,-7.44142 q 1.9637,-2.99723 8.47494,-5.47771 0,-1.757 3.1006,-5.0643 0.41341,-0.10335 2.58382,-1.86035 2.17042,-1.757 4.03077,-2.99724 l -0.41341,-0.72347 q 7.44142,-4.03077 7.33806,-5.47771 5.27101,-2.27377 6.8213,-5.271 7.44142,-6.821305 10.74872,-7.234717 0.82682,-0.103353 2.68718,-0.930177 1.9637,-0.930178 3.30729,-1.136884 2.17042,-2.790532 5.68442,-2.790532 2.06711,0 2.06711,2.997238 l 0.31,6.717947 -1.34358,3.824065 -0.20671,4.85759 -2.27376,5.78777 -2.37712,14.57278 q -0.41341,1.24023 -1.44694,1.44694 l 1.24023,4.65089 -1.44694,2.58382 2.48047,1.44694 -0.82682,1.34359 q -0.62012,0.62012 -2.06706,3.3073 1.03353,1.03353 1.65365,1.96371 l -0.62012,8.26824 h 0.41341 q 1.03353,10.85207 2.37712,10.95542 l 4.44417,-1.65365 q 2.5838,-4.23747 7.9582,-7.23471 1.8603,-0.31006 2.7905,-1.24024 1.6537,0 2.0671,-1.03353 1.8603,-1.13688 3.3073,-1.44694 1.4469,-0.41341 6.0978,-2.79053 l 3.514,0.82682 q 1.2403,1.13689 1.5503,2.27377 -2.7905,3.41065 -6.0978,8.16489 -3.204,4.75424 -4.5476,4.75424 h -2.8938 l -2.1705,3.20394 -5.271,1.03353 -4.6508,5.99448 -3.8241,1.03353 -14.57278,10.1286 -4.44418,4.44418 -0.62012,-3.82406 -3.82406,0.2067 -1.34359,-6.30453 -2.06706,-1.65365 -0.20671,-7.23471 -1.03353,-4.44418 q 0,-5.58107 2.06706,-5.89113 v -0.51676 l 1.24024,-4.85759 -0.20671,-6.71795 2.37712,-4.65089 -1.65365,-1.96371 3.3073,-3.82406 0.20671,-7.95818 1.757,-3.82406 -2.99724,-4.03077 0.82683,-0.20671 v -2.99724 l 1.9637,-1.03353 v -0.62011 l -0.2067,-1.75701 v -0.41341 q -0.93018,-1.03353 -4.65089,-1.65365 l -4.96095,4.03077 -6.92465,3.20395 -10.1286,11.36883 -1.55029,2.37712 q -4.54753,4.54753 -4.44418,5.0643 l -2.06706,1.44694 q -0.41341,2.06706 -0.41341,2.79053 l -4.03077,4.65089 -4.23748,6.09783 -7.23471,11.47218 h -0.41341 l -1.24024,2.89389 -1.9637,6.8213 q -4.34083,3.61735 -7.75148,7.23471 l -3.41065,0.82682 -2.17042,3.61736 -1.44694,0.20671 -2.79053,-0.62012 q -2.27377,0 -4.85759,1.03353 l 2.17041,-4.23748 0.82683,-3.82406 q 4.03076,-9.81854 6.09782,-17.77672 h 0.41342 v -2.99724 l 2.17041,-6.09783 0.82682,-5.271 h 0.41342 l -1.03353,-3.41065 1.03353,-6.40789 0.72347,-2.27376 q 0.31006,-1.03353 2.89388,-4.44418 l -0.62012,-2.79054 1.24024,-1.86035 q -1.86035,-4.96095 -1.86035,-9.09507 l 0.62011,-3.41065 -0.41341,-0.62012 v -1.24023 q -2.89388,-1.96371 -6.40789,-1.96371 -1.13688,0 -2.48047,0.62012 -1.24023,0.62012 -3.82406,5.58106 -6.71795,2.27377 -7.85483,2.89389 l -1.86036,-4.03077 q 0,-1.757 1.03353,-2.68718 1.13689,-0.93018 1.86036,-0.93018 h 1.757 l 1.65365,-2.27376 3.20394,-0.82683 -1.24023,-0.82682 v -1.13689 l 3.92741,0.62012 4.23748,-4.65088 5.99447,-3.51401 1.03353,-1.343587 h 0.62012 l -1.03353,-1.446942 q 0.82682,0.413412 1.24024,0.413412 0.82682,0 0.82682,-1.860355 3.61736,-4.340827 7.64813,-4.857592 1.24023,-3.203944 4.65088,-3.41065 v -1.03353 z"
       id="text6"
       aria-label="StrokeGen" /><text
       xml:space="preserve"
       style="font-style:normal;font-variant:normal;font-weight:normal;font-stretch:normal;font-size:100.891px;line-height:0.8;font-family:'TT-JTCE\'EE\'CE\'i`M9P';-inkscape-font-specification:'TT-JTCE\'EE\'CE\'i`M9P';display:inline;fill:#009485;fill-opacity:1;stroke:none;stroke-width:4.60685;stroke-dasharray:none;stroke-opacity:1"
       x="10.507178"
       y="94.016655"
       id="text6-3"><tspan
         id="tspan6-0"
         style="font-style:normal;font-variant:normal;font-weight:normal;font-stretch:normal;font-size:100.891px;font-family:'TT-JTCE\'EE\'CE\'i`M9';-inkscape-font-specification:'TT-JTCE\'EE\'CE\'i`M9';fill:#ffffff;fill-opacity:1;stroke:none;stroke-width:4.60685;stroke-opacity:1"
         x="10.507178"
         y="94.016655"
         sodipodi:role="line">StrokeGen</tspan></text><text
       xml:space="preserve"
       style="font-style:normal;font-variant:normal;font-weight:normal;font-stretch:normal;font-size:17.6389px;line-height:0.8;font-family:'Segoe Print';-inkscape-font-specification:'Segoe Print';font-variant-ligatures:normal;font-variant-position:normal;font-variant-caps:normal;font-variant-numeric:normal;font-variant-alternates:normal;font-variant-east-asian:normal;font-feature-settings:normal;font-variation-settings:normal;text-indent:0;text-align:start;text-decoration-line:none;text-decoration-style:solid;text-decoration-color:#000000;letter-spacing:normal;word-spacing:normal;text-transform:none;writing-mode:lr-tb;direction:ltr;text-orientation:mixed;dominant-baseline:auto;baseline-shift:baseline;white-space:normal;opacity:1;vector-effect:none;fill:#009485;fill-opacity:1;stroke:none;stroke-width:4.60685;stroke-linecap:butt;stroke-linejoin:miter;stroke-miterlimit:4;stroke-dasharray:none;stroke-dashoffset:0;stroke-opacity:1;-inkscape-stroke:none;stop-color:#000000;stop-opacity:1"
       x="231.63982"
       y="127.76376"
       id="text1"><tspan
         sodipodi:role="line"
         id="tspan1"
         style="font-style:normal;font-variant:normal;font-weight:normal;font-stretch:normal;font-size:17.6389px;line-height:0.8;font-family:'TT-JTCE\'EE\'CE\'i`M9';-inkscape-font-specification:'TT-JTCE\'EE\'CE\'i`M9';font-variant-ligatures:normal;font-variant-position:normal;font-variant-caps:normal;font-variant-numeric:normal;font-variant-alternates:normal;font-variant-east-asian:normal;font-feature-settings:normal;text-indent:0;text-align:start;text-decoration-line:none;text-decoration-style:solid;text-decoration-color:#000000;letter-spacing:normal;word-spacing:normal;text-transform:none;writing-mode:lr-tb;direction:ltr;text-orientation:mixed;dominant-baseline:auto;baseline-shift:baseline;white-space:normal;vector-effect:none;fill:#ffffff;fill-opacity:1;stroke:none;stroke-width:4.60685;stroke-linecap:butt;stroke-linejoin:miter;stroke-miterlimit:4;stroke-dasharray:none;stroke-dashoffset:0;stroke-opacity:1;-inkscape-stroke:none;stop-color:#000000;stop-opacity:1"
         x="231.63982"
         y="127.76376">Advanced Line Art Renderer</tspan></text></g></svg>
